<svg xmlns="http://www.w3.org/2000/svg" width="21" height="18" viewBox="0 0 21 18" fill="none">
  <path d="M1.21875 16.0001V9.50002H9.71873V18H3.21867C2.11414 18 1.21875 17.1046 1.21875 16.0001ZM3.96877 14.25H4.9688V15.25C4.9688 15.5262 5.19264 15.75 5.46881 15.75C5.74498 15.75 5.96883 15.5262 5.96883 15.25V14.25H6.96886C7.24489 14.25 7.46887 14.0261 7.46887 13.7499C7.46887 13.4738 7.24503 13.2499 6.96886 13.2499H5.96883V12.2499C5.96883 11.9739 5.74498 11.7499 5.46881 11.7499C5.19264 11.7499 4.9688 11.9737 4.9688 12.2499V13.2499H3.96877C3.6926 13.2499 3.46875 13.4738 3.46875 13.7499C3.46875 14.0261 3.6926 14.25 3.96877 14.25Z" fill="#939393"/>
  <path d="M17.2188 18H10.7188V9.50002H19.2187V16.0001C19.2187 17.1046 18.3233 18 17.2188 18ZM16.4687 13.2499H13.4688C13.1926 13.2499 12.9688 13.4738 12.9688 13.7501C12.9688 14.0262 13.1926 14.2501 13.4688 14.2501H16.4687C16.7449 14.2501 16.9687 14.0262 16.9687 13.7501C16.9687 13.4738 16.7449 13.2499 16.4687 13.2499Z" fill="#939393"/>
  <path d="M1.21875 1.99994C1.21875 0.895401 2.11414 1.52588e-05 3.21867 1.52588e-05H9.71873V8.5H1.21875V1.99994ZM4.05473 4.95705C3.86288 5.15576 3.86838 5.47217 4.06696 5.66402C4.26073 5.8512 4.56793 5.8512 4.7617 5.66402L5.46881 4.95705L6.17578 5.66402C6.3745 5.85587 6.69104 5.85037 6.88289 5.65179C7.06993 5.45802 7.06993 5.15082 6.88289 4.95705L6.17578 4.24994L6.88289 3.54297C7.08147 3.35112 7.08696 3.03458 6.89511 2.836C6.70326 2.63728 6.38672 2.63179 6.18814 2.82364C6.18388 2.82762 6.1799 2.83174 6.17578 2.836L5.46881 3.54297L4.7617 2.836C4.56313 2.64401 4.24658 2.64951 4.05473 2.84822C3.86755 3.04199 3.86755 3.3492 4.05473 3.54297L4.7617 4.24994L4.05473 4.95705Z" fill="#939393"/>
  <path d="M10.7188 1.52588e-05H17.2188C18.3233 1.52588e-05 19.2187 0.895401 19.2187 1.99994V8.5H10.7188V1.52588e-05ZM13.4688 5.74998H16.4687C16.7449 5.74998 16.9687 5.52614 16.9687 5.24997C16.9687 4.9738 16.7449 4.74995 16.4687 4.74995H13.4688C13.1926 4.74995 12.9688 4.9738 12.9688 5.24997C12.9688 5.52614 13.1926 5.74998 13.4688 5.74998ZM13.4688 3.75006H16.4687C16.7449 3.75006 16.9687 3.52621 16.9687 3.25005C16.9687 2.97388 16.7449 2.75003 16.4687 2.75003H13.4688C13.1926 2.75003 12.9688 2.97388 12.9688 3.25005C12.9688 3.52621 13.1926 3.75006 13.4688 3.75006Z" fill="#939393"/>
</svg>