<svg xmlns="http://www.w3.org/2000/svg" width="24" height="24" viewBox="0 0 24 24" fill="none">
  <g clip-path="url(#clip0_110_589)">
    <path d="M0 21.3334V12.6667H11.3333V24H2.66656C1.19385 24 0 22.8062 0 21.3334ZM3.66669 18.9999H5.00006V20.3333C5.00006 20.7015 5.29852 21 5.66675 21C6.03497 21 6.33344 20.7015 6.33344 20.3333V18.9999H7.66681C8.03485 18.9999 8.3335 18.7015 8.3335 18.3333C8.3335 17.965 8.03503 17.6666 7.66681 17.6666H6.33344V16.3332C6.33344 15.9651 6.03497 15.6665 5.66675 15.6665C5.29852 15.6665 5.00006 15.965 5.00006 16.3332V17.6666H3.66669C3.29846 17.6666 3 17.965 3 18.3333C3 18.7015 3.29846 18.9999 3.66669 18.9999Z" fill="white"/>
    <path d="M21.3335 24H12.6667V12.6667H24.0001V21.3334C24.0001 22.8062 22.8062 24 21.3335 24ZM20.3334 17.6666H16.3334C15.9652 17.6666 15.6667 17.965 15.6667 18.3334C15.6667 18.7017 15.9652 19.0001 16.3334 19.0001H20.3334C20.7016 19.0001 21.0001 18.7017 21.0001 18.3334C21.0001 17.965 20.7016 17.6666 20.3334 17.6666Z" fill="white"/>
    <path d="M0 2.66724C0 1.19452 1.19385 0.000671387 2.66656 0.000671387H11.3333V11.334H0V2.66724ZM3.78131 6.61005C3.52551 6.875 3.53284 7.29688 3.79761 7.55267C4.05597 7.80225 4.46558 7.80225 4.72394 7.55267L5.66675 6.61005L6.60938 7.55267C6.87433 7.80847 7.29639 7.80115 7.55219 7.53638C7.80157 7.27802 7.80157 6.86841 7.55219 6.61005L6.60938 5.66724L7.55219 4.72461C7.81696 4.46881 7.82428 4.04675 7.56848 3.78198C7.31268 3.51703 6.89062 3.5097 6.62585 3.7655C6.62018 3.77081 6.61487 3.77631 6.60938 3.78198L5.66675 4.72461L4.72394 3.78198C4.45917 3.526 4.03711 3.53333 3.78131 3.79828C3.53174 4.05664 3.53174 4.46625 3.78131 4.72461L4.72394 5.66724L3.78131 6.61005Z" fill="white"/>
    <path d="M12.6667 0.000671387H21.3335C22.8062 0.000671387 24.0001 1.19452 24.0001 2.66724V11.334H12.6667V0.000671387ZM16.3334 7.6673H20.3334C20.7016 7.6673 21.0001 7.36884 21.0001 7.00061C21.0001 6.63239 20.7016 6.33392 20.3334 6.33392H16.3334C15.9652 6.33392 15.6667 6.63239 15.6667 7.00061C15.6667 7.36884 15.9652 7.6673 16.3334 7.6673ZM16.3334 5.00073H20.3334C20.7016 5.00073 21.0001 4.70227 21.0001 4.33405C21.0001 3.96582 20.7016 3.66736 20.3334 3.66736H16.3334C15.9652 3.66736 15.6667 3.96582 15.6667 4.33405C15.6667 4.70227 15.9652 5.00073 16.3334 5.00073Z" fill="white"/>
  </g>
  <defs>
    <clipPath id="clip0_110_589">
      <rect width="24" height="24" fill="white" transform="matrix(1 0 0 -1 0 24)"/>
    </clipPath>
  </defs>
</svg>