<svg xmlns="http://www.w3.org/2000/svg" width="16" height="20" viewBox="0 0 16 20" fill="none">
  <path d="M14.1063 8.09911C14.1063 13.6853 7.8994 18.0301 7.8994 18.0301C7.8994 18.0301 1.6925 13.6853 1.6925 8.09911C1.6925 6.45294 2.34644 4.87419 3.51046 3.71017C4.67448 2.54615 6.25323 1.89221 7.8994 1.89221C9.54557 1.89221 11.1243 2.54615 12.2883 3.71017C13.4524 4.87419 14.1063 6.45294 14.1063 8.09911Z" fill="#939393" stroke="#939393" stroke-width="2" stroke-linecap="round" stroke-linejoin="round"/>
  <path d="M7.89938 10.5819C9.27057 10.5819 10.3821 9.47028 10.3821 8.09909C10.3821 6.7279 9.27057 5.61633 7.89938 5.61633C6.52819 5.61633 5.41663 6.7279 5.41663 8.09909C5.41663 9.47028 6.52819 10.5819 7.89938 10.5819Z" fill="white" stroke="white" stroke-width="2" stroke-linecap="round" stroke-linejoin="round"/>
</svg>