<svg width="29" height="29" viewBox="0 0 29 29" fill="none" xmlns="http://www.w3.org/2000/svg">
<g id="molecule_3533292 1" clip-path="url(#clip0_96_732)">
<path id="Vector" d="M24.2709 17.3443L19.7852 15.6188C20.0902 14.176 19.8027 12.6128 18.8733 11.3329L23.5611 6.64509C25.9295 8.08605 29 6.37687 29 3.58235C29 1.60705 27.3929 0 25.4176 0C22.6208 0 20.9154 3.07292 22.3549 5.43886L17.6671 10.1267C15.6544 8.66514 12.8952 8.76516 10.9902 10.3971L8.60447 8.36917C9.79472 6.00021 8.06388 3.18431 5.40196 3.18431C3.42666 3.18431 1.81961 4.79137 1.81961 6.76667C1.81961 9.69845 5.15535 11.3669 7.49906 9.66837L9.88439 11.696C8.75607 13.5464 8.84534 15.9026 10.1267 17.6671L7.00663 20.7871C4.05556 18.7865 0 20.8958 0 24.5078C0 26.9848 2.01516 29 4.49216 29C8.10124 29 10.2157 24.9475 8.2128 21.9934L11.3329 18.8734C12.6405 19.8229 14.2731 20.12 15.7932 19.7452L17.7324 24.3289C15.898 25.9566 17.0521 29 19.5039 29C20.9776 29 22.1765 27.8011 22.1765 26.3275C22.1765 24.7961 20.8749 23.5458 19.303 23.6633L17.3634 19.0786C18.1067 18.6121 18.7289 17.9699 19.1713 17.2104L23.6578 18.9363C23.5939 20.4646 24.8197 21.7216 26.3275 21.7216C27.8011 21.7216 29 20.5227 29 19.049C29 16.5701 25.8733 15.4145 24.2709 17.3443Z" fill="white"/>
</g>
<defs>
<clipPath id="clip0_96_732">
<rect width="29" height="29" fill="white"/>
</clipPath>
</defs>
</svg>
