<svg xmlns="http://www.w3.org/2000/svg" width="12" height="13" viewBox="0 0 12 13" fill="none">
  <path d="M9.94619 5.89443L2.44652 1.31114C2.38335 1.27254 2.31104 1.25146 2.23702 1.25007C2.163 1.24869 2.08995 1.26704 2.02538 1.30326C1.96081 1.33947 1.90705 1.39223 1.86964 1.45611C1.83222 1.51999 1.8125 1.59268 1.8125 1.66672V10.8333C1.8125 10.9073 1.83222 10.98 1.86964 11.0439C1.90705 11.1078 1.96081 11.1605 2.02538 11.1967C2.08995 11.233 2.163 11.2513 2.23702 11.2499C2.31104 11.2485 2.38335 11.2275 2.44652 11.1889L9.94619 6.60557C10.0071 6.56835 10.0574 6.5161 10.0923 6.45384C10.1273 6.39157 10.1456 6.32139 10.1456 6.25C10.1456 6.17861 10.1273 6.10843 10.0923 6.04616C10.0574 5.9839 10.0071 5.93165 9.94619 5.89443Z" fill="white" stroke="white" stroke-width="2" stroke-linecap="round" stroke-linejoin="round"/>
</svg>