<svg width="29" height="29" viewBox="0 0 29 29" fill="none" xmlns="http://www.w3.org/2000/svg">
<g id="shield_6051320 1" clip-path="url(#clip0_96_630)">
<path id="Vector" fill-rule="evenodd" clip-rule="evenodd" d="M3.61401 2.04136e-06C3.51411 -0.000207197 3.41516 0.0193212 3.32283 0.0574657C3.2305 0.0956102 3.14662 0.151619 3.076 0.222276C3.00538 0.292932 2.94941 0.376844 2.91132 0.469193C2.87322 0.561541 2.85375 0.660505 2.85401 0.760402V12.5408V12.5704C2.97854 16.1008 4.115 19.521 6.12807 22.4238C8.14114 25.3266 10.946 27.5898 14.2088 28.9438C14.3956 29.0187 14.6042 29.0187 14.791 28.9438C18.0538 27.5899 20.8587 25.3267 22.8717 22.4239C24.8847 19.5211 26.0211 16.1008 26.1454 12.5705C26.1458 12.5606 26.1454 12.5507 26.1454 12.5408V0.760402C26.1457 0.660504 26.1263 0.561532 26.0882 0.469175C26.0501 0.376817 25.9942 0.292895 25.9236 0.222232C25.8529 0.15157 25.7691 0.0955598 25.6767 0.0574219C25.5844 0.0192841 25.4854 -0.000229773 25.3855 2.04136e-06H3.61401Z" fill="white"/>
</g>
<defs>
<clipPath id="clip0_96_630">
<rect width="29" height="29" fill="white"/>
</clipPath>
</defs>
</svg>
