<svg xmlns="http://www.w3.org/2000/svg" width="21" height="18" viewBox="0 0 21 18" fill="none">
  <path d="M20.0881 14.7L15.6715 10.725C15.3381 10.425 14.8381 10.425 14.5048 10.725L12.1715 12.825C9.5048 11.7 7.33813 9.75 6.08813 7.35L8.42147 5.25C8.7548 4.95 8.7548 4.5 8.42147 4.2L4.0048 0.225C3.67147 -0.075 3.17147 -0.075 2.7548 0.225L0.588135 2.175C0.421468 2.4 0.338135 2.55 0.338135 2.775C0.338135 11.175 7.92147 18 17.2548 18C17.5048 18 17.6715 17.925 17.8381 17.775L20.0048 15.825C20.4215 15.45 20.4215 15 20.0881 14.7Z" fill="#939393"/>
</svg>