<svg xmlns="http://www.w3.org/2000/svg" width="56" height="56" viewBox="0 0 56 56" fill="none">
  <g clip-path="url(#clip0_227_4453)">
    <circle cx="28" cy="28" r="25" fill="white"/>
    <path d="M47.7959 8.19803C36.8596 -2.73499 19.1309 -2.73236 8.1979 8.20404C-2.73511 19.1404 -2.73249 36.869 8.20392 47.8021C19.1403 58.7351 36.8689 58.7324 47.8019 47.796C53.0526 42.5437 56.0016 35.4207 55.9999 27.994C55.9984 20.5686 53.0473 13.4478 47.7959 8.19803ZM42.4049 39.0037C42.4037 39.0049 42.4025 39.0062 42.4012 39.0074V38.9981L40.9825 40.4074C39.1477 42.2654 36.4756 43.0298 33.9358 42.4234C31.377 41.7385 28.9445 40.6483 26.7305 39.1941C24.6736 37.8796 22.7674 36.3428 21.0465 34.6114C19.4631 33.0396 18.0406 31.3137 16.7998 29.4594C15.4427 27.4642 14.3685 25.2907 13.6078 23.0007C12.7358 20.3105 13.4584 17.3586 15.4745 15.3754L17.1358 13.7141C17.5977 13.2502 18.3482 13.2485 18.8121 13.7104C18.8133 13.7116 18.8146 13.7128 18.8158 13.7141L24.0611 18.9594C24.5251 19.4213 24.5267 20.1719 24.0648 20.6357C24.0636 20.6369 24.0624 20.6381 24.0611 20.6394L20.9811 23.7194C20.0974 24.5936 19.9862 25.9826 20.7198 26.9861C21.8338 28.515 23.0666 29.9536 24.4065 31.2888C25.9005 32.7892 27.5246 34.1541 29.2598 35.3675C30.2625 36.0669 31.6218 35.949 32.4891 35.0875L35.4664 32.0635C35.9283 31.5996 36.6788 31.5979 37.1427 32.0598C37.1439 32.061 37.1451 32.0622 37.1464 32.0635L42.4011 37.3275C42.8652 37.7893 42.8668 38.5397 42.4049 39.0037Z" fill="#328BDC"/>
  </g>
  <defs>
    <clipPath id="clip0_227_4453">
      <rect width="56" height="56" fill="white"/>
    </clipPath>
  </defs>
</svg>