<svg width="29" height="29" viewBox="0 0 29 29" fill="none" xmlns="http://www.w3.org/2000/svg">
<g id="time_5974343 1">
<g id="Glyph">
<path id="Vector" d="M14.5002 1.20831C11.8713 1.20831 9.30152 1.98786 7.11571 3.44836C4.92991 4.90887 3.22628 6.98474 2.22027 9.41348C1.21426 11.8422 0.951036 14.5147 1.4639 17.0931C1.97676 19.6714 3.24267 22.0397 5.10154 23.8986C6.96041 25.7575 9.32876 27.0234 11.9071 27.5363C14.4854 28.0491 17.1579 27.7859 19.5867 26.7799C22.0154 25.7739 24.0913 24.0702 25.5518 21.8844C27.0123 19.6986 27.7918 17.1288 27.7918 14.5C27.7918 10.9748 26.3915 7.59402 23.8988 5.10135C21.4061 2.60868 18.0253 1.20831 14.5002 1.20831ZM18.7777 18.7775C18.6648 18.8895 18.5309 18.9781 18.3836 19.0382C18.2364 19.0983 18.0788 19.1288 17.9198 19.1279C17.7607 19.1288 17.6031 19.0983 17.4559 19.0382C17.3086 18.9781 17.1747 18.8895 17.0618 18.7775L13.6423 15.3579C13.5303 15.245 13.4417 15.1111 13.3815 14.9639C13.3214 14.8166 13.2909 14.659 13.2918 14.5V7.24998C13.2918 6.92951 13.4191 6.62217 13.6457 6.39556C13.8724 6.16895 14.1797 6.04165 14.5002 6.04165C14.8206 6.04165 15.128 6.16895 15.3546 6.39556C15.5812 6.62217 15.7085 6.92951 15.7085 7.24998V14.0046L18.7777 17.0616C18.8909 17.174 18.9808 17.3076 19.0422 17.4549C19.1035 17.6021 19.1351 17.76 19.1351 17.9196C19.1351 18.0791 19.1035 18.237 19.0422 18.3843C18.9808 18.5315 18.8909 18.6651 18.7777 18.7775Z" fill="white"/>
</g>
</g>
</svg>
