<svg viewBox="0 0 29 29" xmlns="http://www.w3.org/2000/svg" xmlns:xlink="http://www.w3.org/1999/xlink"><style>:root&gt;svg{display:none}:root&gt;svg:target{display:block}</style><svg fill="none" viewBox="0 0 16 16" id="sprite--CaretDown" xmlns="http://www.w3.org/2000/svg"><path d="M10 13L5 8l5-5"/></svg><svg fill="none" viewBox="0 0 25 25" id="sprite--CheckCircle" xmlns="http://www.w3.org/2000/svg"><g stroke-width="2" stroke-linecap="round" stroke-linejoin="round"><path d="M12.5 21.875a9.375 9.375 0 100-18.75 9.375 9.375 0 100 18.75z" fill="#000" stroke="#000"/><path d="M16.797 10.156l-5.73 5.469-2.864-2.734" stroke="#fff"/></g></svg><svg fill="none" viewBox="0 0 20 20" id="sprite--alfa24_arrow" xmlns="http://www.w3.org/2000/svg"><path d="M3.396 10h13.05m-5.339-5.156L16.447 10l-5.34 5.156" stroke="#fff" stroke-width="3" stroke-linecap="round" stroke-linejoin="round"/></svg><svg fill="none" viewBox="0 0 15 15" id="sprite--bread-arrow" xmlns="http://www.w3.org/2000/svg"><path d="M5.625 2.813L10.313 7.5l-4.688 4.688" stroke="#888" stroke-linecap="round" stroke-linejoin="round"/></svg><svg fill="none" viewBox="0 0 29 29" id="sprite--molecule" xmlns="http://www.w3.org/2000/svg"><g clip-path="url(#eclip0_96_732)"><path d="M24.27 17.344l-4.485-1.725a5.388 5.388 0 00-.912-4.286l4.688-4.688C25.93 8.086 29 6.377 29 3.582A3.586 3.586 0 0025.418 0c-2.797 0-4.503 3.073-3.063 5.439l-4.688 4.688a5.39 5.39 0 00-6.677.27L8.604 8.37c1.19-2.37-.54-5.186-3.202-5.186A3.586 3.586 0 001.82 6.767c0 2.931 3.335 4.6 5.68 2.901l2.384 2.028a5.39 5.39 0 00.243 5.971l-3.12 3.12c-2.951-2-7.007.109-7.007 3.72A4.497 4.497 0 004.492 29c3.61 0 5.724-4.052 3.72-7.007l3.12-3.12a5.387 5.387 0 004.461.872l1.94 4.584c-1.835 1.628-.68 4.671 1.77 4.671a2.676 2.676 0 002.674-2.672 2.674 2.674 0 00-2.874-2.665l-1.94-4.584a5.443 5.443 0 001.808-1.869l4.487 1.726a2.674 2.674 0 002.67 2.786A2.676 2.676 0 0029 19.049c0-2.479-3.127-3.634-4.73-1.705z" fill="#fff"/></g><defs><clipPath id="eclip0_96_732"><path fill="#fff" d="M0 0h29v29H0z"/></clipPath></defs></svg><svg fill="none" viewBox="0 0 8 10" id="sprite--pause" xmlns="http://www.w3.org/2000/svg"><path d="M1.5 0v10m5-10v10"/></svg><svg fill="none" viewBox="0 0 12 13" id="sprite--play" xmlns="http://www.w3.org/2000/svg"><path d="M9.946 5.894l-7.5-4.583a.417.417 0 00-.634.356v9.166a.417.417 0 00.635.356l7.5-4.583a.416.416 0 000-.712z" fill="#fff" stroke="#fff" stroke-width="2" stroke-linecap="round" stroke-linejoin="round"/></svg><svg fill="none" viewBox="0 0 29 29" id="sprite--shield" xmlns="http://www.w3.org/2000/svg"><g clip-path="url(#hclip0_96_630)"><path fill-rule="evenodd" clip-rule="evenodd" d="M3.614 0a.758.758 0 00-.76.76v11.81a18.43 18.43 0 0011.355 16.374.782.782 0 00.582 0A18.429 18.429 0 0026.145 12.57V.76a.758.758 0 00-.76-.761H3.614z" fill="#fff"/></g><defs><clipPath id="hclip0_96_630"><path fill="#fff" d="M0 0h29v29H0z"/></clipPath></defs></svg><svg fill="none" viewBox="0 0 29 29" id="sprite--time" xmlns="http://www.w3.org/2000/svg"><path d="M14.5 1.208a13.292 13.292 0 100 26.584 13.292 13.292 0 000-26.584zm4.278 17.57a1.207 1.207 0 01-.858.35 1.209 1.209 0 01-.858-.35l-3.42-3.42a1.21 1.21 0 01-.35-.858V7.25a1.208 1.208 0 112.417 0v6.755l3.069 3.057a1.21 1.21 0 010 1.715z" fill="#fff"/></svg></svg>