<?xml version="1.0" encoding="utf-8"?><svg viewBox="0 0 56 56" xmlns="http://www.w3.org/2000/svg" xmlns:xlink="http://www.w3.org/1999/xlink"><style>:root>svg{display:none}:root>svg:target{display:block}</style><svg fill="none" viewBox="0 0 16 16" id="sprite--CaretDown" xmlns="http://www.w3.org/2000/svg"><path d="M10 13L5 8l5-5"/></svg><svg fill="none" viewBox="0 0 25 25" id="sprite--CheckCircle" xmlns="http://www.w3.org/2000/svg"><g stroke-width="2" stroke-linecap="round" stroke-linejoin="round"><path d="M12.5 21.875a9.375 9.375 0 100-18.75 9.375 9.375 0 100 18.75z" fill="#000" stroke="#000"/><path d="M16.797 10.156l-5.73 5.469-2.864-2.734" stroke="#fff"/></g></svg><svg fill="none" viewBox="0 0 20 20" id="sprite--alfa24_arrow" xmlns="http://www.w3.org/2000/svg"><path d="M3.396 10h13.05m-5.339-5.156L16.447 10l-5.34 5.156" stroke="#fff" stroke-width="3" stroke-linecap="round" stroke-linejoin="round"/></svg><svg fill="none" viewBox="0 0 15 15" id="sprite--bread-arrow" xmlns="http://www.w3.org/2000/svg"><path d="M5.625 2.813L10.313 7.5l-4.688 4.688" stroke="#888" stroke-linecap="round" stroke-linejoin="round"/></svg><svg fill="none" viewBox="0 0 24 24" id="sprite--calc" xmlns="http://www.w3.org/2000/svg"><g clip-path="url(#eclip0_110_589)" fill="#fff"><path d="M0 21.333v-8.666h11.333V24H2.667A2.667 2.667 0 010 21.333zM3.667 19H5v1.333a.667.667 0 101.333 0V19h1.334a.667.667 0 000-1.333H6.333v-1.334a.667.667 0 00-1.333 0v1.334H3.667a.667.667 0 100 1.333zm17.667 5h-8.667V12.667H24v8.666A2.667 2.667 0 0121.334 24zm-1-6.333h-4a.667.667 0 100 1.333h4a.667.667 0 100-1.333zM0 2.667A2.667 2.667 0 012.667.001h8.666v11.333H0V2.667zM3.781 6.61a.667.667 0 00.943.943l.943-.943.942.943a.667.667 0 00.943-.943l-.943-.943.943-.942a.667.667 0 00-.926-.96l-.017.017-.942.943-.943-.943a.666.666 0 00-.943.943l.943.942-.943.943zM12.667 0h8.667A2.667 2.667 0 0124 2.668v8.667H12.667V.001zm3.666 7.667h4a.667.667 0 100-1.333h-4a.667.667 0 100 1.333zm0-2.666h4a.667.667 0 100-1.334h-4a.667.667 0 100 1.334z"/></g><defs><clipPath id="eclip0_110_589"><path fill="#fff" transform="matrix(1 0 0 -1 0 24)" d="M0 0h24v24H0z"/></clipPath></defs></svg><svg fill="none" viewBox="0 0 21 18" id="sprite--calc-mob" xmlns="http://www.w3.org/2000/svg"><path d="M1.219 16V9.5h8.5V18h-6.5a2 2 0 01-2-2zm2.75-1.75h1v1a.5.5 0 101 0v-1h1a.5.5 0 000-1h-1v-1a.5.5 0 00-1 0v1h-1a.5.5 0 000 1zM17.219 18h-6.5V9.5h8.5V16a2 2 0 01-2 2zm-.75-4.75h-3a.5.5 0 000 1h3a.5.5 0 100-1zM1.219 2a2 2 0 012-2h6.5v8.5h-8.5V2zm2.836 2.957a.5.5 0 00.707.707l.707-.707.707.707a.5.5 0 00.707-.707l-.707-.707.707-.707a.5.5 0 00-.695-.72l-.012.013-.707.707-.707-.707a.5.5 0 00-.707.707l.707.707-.707.707zM10.719 0h6.5a2 2 0 012 2v6.5h-8.5V0zm2.75 5.75h3a.5.5 0 100-1h-3a.5.5 0 100 1zm0-2h3a.5.5 0 100-1h-3a.5.5 0 100 1z" fill="#939393"/></svg><svg fill="none" viewBox="0 0 16 20" id="sprite--loca-mob" xmlns="http://www.w3.org/2000/svg"><path d="M14.106 8.1c0 5.585-6.207 9.93-6.207 9.93S1.692 13.685 1.692 8.1a6.207 6.207 0 0112.414 0z" fill="#939393" stroke="#939393" stroke-width="2" stroke-linecap="round" stroke-linejoin="round"/><path d="M7.9 10.582a2.483 2.483 0 100-4.966 2.483 2.483 0 000 4.966z" fill="#fff" stroke="#fff" stroke-width="2" stroke-linecap="round" stroke-linejoin="round"/></svg><svg fill="none" viewBox="0 0 29 29" id="sprite--molecule" xmlns="http://www.w3.org/2000/svg"><g clip-path="url(#hclip0_96_732)"><path d="M24.27 17.344l-4.485-1.725a5.388 5.388 0 00-.912-4.286l4.688-4.688C25.93 8.086 29 6.377 29 3.582A3.586 3.586 0 0025.418 0c-2.797 0-4.503 3.073-3.063 5.439l-4.688 4.688a5.39 5.39 0 00-6.677.27L8.604 8.37c1.19-2.37-.54-5.186-3.202-5.186A3.586 3.586 0 001.82 6.767c0 2.931 3.335 4.6 5.68 2.901l2.384 2.028a5.39 5.39 0 00.243 5.971l-3.12 3.12c-2.951-2-7.007.109-7.007 3.72A4.497 4.497 0 004.492 29c3.61 0 5.724-4.052 3.72-7.007l3.12-3.12a5.387 5.387 0 004.461.872l1.94 4.584c-1.835 1.628-.68 4.671 1.77 4.671a2.676 2.676 0 002.674-2.672 2.674 2.674 0 00-2.874-2.665l-1.94-4.584a5.443 5.443 0 001.808-1.869l4.487 1.726a2.674 2.674 0 002.67 2.786A2.676 2.676 0 0029 19.049c0-2.479-3.127-3.634-4.73-1.705z" fill="#fff"/></g><defs><clipPath id="hclip0_96_732"><path fill="#fff" d="M0 0h29v29H0z"/></clipPath></defs></svg><svg fill="none" viewBox="0 0 8 10" id="sprite--pause" xmlns="http://www.w3.org/2000/svg"><path d="M1.5 0v10m5-10v10"/></svg><svg fill="none" viewBox="0 0 12 13" id="sprite--play" xmlns="http://www.w3.org/2000/svg"><path d="M9.946 5.894l-7.5-4.583a.417.417 0 00-.634.356v9.166a.417.417 0 00.635.356l7.5-4.583a.416.416 0 000-.712z" fill="#fff" stroke="#fff" stroke-width="2" stroke-linecap="round" stroke-linejoin="round"/></svg><svg fill="none" viewBox="0 0 16 17" id="sprite--radio-1" xmlns="http://www.w3.org/2000/svg"><circle cx="8" cy="8.5" r="7.5" stroke="#000"/></svg><svg fill="none" viewBox="0 0 16 17" id="sprite--radio-2" xmlns="http://www.w3.org/2000/svg"><circle cx="8" cy="8.5" r="7.5" stroke="#000"/><circle cx="8" cy="8.5" r="3.5" fill="#000" stroke="#000"/></svg><svg viewBox="0 0 19 18" id="sprite--search-mob" xmlns="http://www.w3.org/2000/svg"><path d="M8.656 14.063a5.906 5.906 0 100-11.813 5.906 5.906 0 000 11.813zm4.176-1.73l3.418 3.417"/></svg><svg fill="none" viewBox="0 0 32 32" id="sprite--search-mob-clear" xmlns="http://www.w3.org/2000/svg"><path d="M16 28c6.627 0 12-5.373 12-12S22.627 4 16 4 4 9.373 4 16s5.373 12 12 12z" fill="#D9D9D9"/><path d="M20 12l-8 8m8 0l-8-8" stroke="#fff" stroke-width="2" stroke-linecap="round" stroke-linejoin="round"/></svg><svg fill="none" viewBox="0 0 29 29" id="sprite--shield" xmlns="http://www.w3.org/2000/svg"><g clip-path="url(#oclip0_96_630)"><path fill-rule="evenodd" clip-rule="evenodd" d="M3.614 0a.758.758 0 00-.76.76v11.81a18.43 18.43 0 0011.355 16.374.782.782 0 00.582 0A18.429 18.429 0 0026.145 12.57V.76a.758.758 0 00-.76-.761H3.614z" fill="#fff"/></g><defs><clipPath id="oclip0_96_630"><path fill="#fff" d="M0 0h29v29H0z"/></clipPath></defs></svg><svg fill="none" viewBox="0 0 56 56" id="sprite--tel" xmlns="http://www.w3.org/2000/svg"><g clip-path="url(#pclip0_227_4453)"><circle cx="28" cy="28" r="25" fill="#fff"/><path d="M47.796 8.198C36.86-2.735 19.13-2.732 8.198 8.204s-10.93 28.665.006 39.598 28.665 10.93 39.598-.006a28 28 0 00-.006-39.598zm-5.391 30.806l-.004.003v-.009l-1.419 1.41a7.467 7.467 0 01-7.046 2.015 24.809 24.809 0 01-7.206-3.229 33.287 33.287 0 01-5.683-4.583A33.546 33.546 0 0116.8 29.46a26.13 26.13 0 01-3.192-6.458 7.467 7.467 0 011.867-7.626l1.66-1.66a1.185 1.185 0 011.677-.005l.004.004 5.245 5.245a1.185 1.185 0 010 1.68l-3.08 3.08a2.51 2.51 0 00-.261 3.267 36.019 36.019 0 003.687 4.303 35.805 35.805 0 004.853 4.078 2.53 2.53 0 003.23-.28l2.976-3.024a1.185 1.185 0 011.68 0l5.255 5.264c.464.462.466 1.213.004 1.677z" fill="#328BDC"/></g><defs><clipPath id="pclip0_227_4453"><path fill="#fff" d="M0 0h56v56H0z"/></clipPath></defs></svg><svg fill="none" viewBox="0 0 21 18" id="sprite--tel-mob" xmlns="http://www.w3.org/2000/svg"><path d="M20.088 14.7l-4.417-3.975a.869.869 0 00-1.166 0l-2.334 2.1C9.505 11.7 7.338 9.75 6.088 7.35l2.333-2.1c.334-.3.334-.75 0-1.05L4.005.225c-.334-.3-.834-.3-1.25 0L.588 2.175c-.167.225-.25.375-.25.6C.338 11.175 7.921 18 17.255 18c.25 0 .417-.075.583-.225l2.167-1.95c.417-.375.417-.825.083-1.125z" fill="#939393"/></svg><svg fill="none" viewBox="0 0 29 29" id="sprite--time" xmlns="http://www.w3.org/2000/svg"><path d="M14.5 1.208a13.292 13.292 0 100 26.584 13.292 13.292 0 000-26.584zm4.278 17.57a1.207 1.207 0 01-.858.35 1.209 1.209 0 01-.858-.35l-3.42-3.42a1.21 1.21 0 01-.35-.858V7.25a1.208 1.208 0 112.417 0v6.755l3.069 3.057a1.21 1.21 0 010 1.715z" fill="#fff"/></svg></svg>